<svg width="56" height="20" viewBox="0 0 56 20" fill="none" xmlns="http://www.w3.org/2000/svg">
<path d="M35.1635 6.7187V5.2487H28.5835V15.7207H35.1635V14.2367H30.2495V11.0447H34.5475V9.6027H30.2495V6.7187H35.1635ZM45.449 5.2487H43.783V11.6187C43.783 13.4387 42.803 14.3767 41.151 14.3767C39.471 14.3767 38.519 13.4387 38.519 11.6187V5.2487H36.853V11.6467C36.853 14.3487 38.505 15.8607 41.151 15.8607C43.783 15.8607 45.449 14.3487 45.449 11.6467V5.2487ZM53.8984 15.7207H55.7744L53.4224 11.4367C54.5144 10.9887 55.2284 9.9947 55.2284 8.4827C55.2284 6.3687 53.8284 5.2487 51.9384 5.2487H47.7104V15.7207H49.3764V11.7167H51.6864L53.8984 15.7207ZM49.3624 10.2327V6.7187H51.7284C52.7224 6.7187 53.5204 7.2927 53.5204 8.4827C53.5204 9.6587 52.7224 10.2327 51.7284 10.2327H49.3624Z" fill="#372271"/>
<path d="M10 20C15.5228 20 20 15.5228 20 10C20 4.47715 15.5228 0 10 0C4.47715 0 0 4.47715 0 10C0 15.5228 4.47715 20 10 20Z" fill="#0052B4"/>
<path d="M10.0006 3.91307L10.3244 4.90951H11.3721L10.5244 5.52534L10.8482 6.52178L10.0006 5.90592L9.15298 6.52178L9.47673 5.52534L8.62915 4.90951H9.67682L10.0006 3.91307Z" fill="#FFDA44"/>
<path d="M5.69602 5.69588L6.62962 6.17151L7.37044 5.43073L7.20649 6.4655L8.14005 6.94116L7.10524 7.10507L6.94134 8.13991L6.46568 7.20636L5.43091 7.3703L6.17173 6.62948L5.69602 5.69588Z" fill="#FFDA44"/>
<path d="M3.91357 10L4.91002 9.67625V8.6285L5.5258 9.47617L6.52228 9.15242L5.90638 10L6.52228 10.8476L5.5258 10.5238L4.91002 11.3715V10.3238L3.91357 10Z" fill="#FFDA44"/>
<path d="M5.69602 14.3042L6.17169 13.3706L5.43091 12.6298L6.46572 12.7938L6.9413 11.8602L7.10524 12.895L8.14001 13.0589L7.20658 13.5346L7.37044 14.5693L6.62962 13.8285L5.69602 14.3042Z" fill="#FFDA44"/>
<path d="M10.0006 16.087L9.67673 15.0905H8.62915L9.47673 14.4747L9.15298 13.4783L10.0006 14.0941L10.8482 13.4783L10.5244 14.4747L11.3721 15.0905H10.3243L10.0006 16.087Z" fill="#FFDA44"/>
<path d="M14.3045 14.3042L13.3709 13.8285L12.6301 14.5693L12.794 13.5345L11.8606 13.0589L12.8953 12.895L13.0593 11.8602L13.5348 12.7938L14.5696 12.6298L13.8288 13.3707L14.3045 14.3042Z" fill="#FFDA44"/>
<path d="M16.0874 10L15.091 10.3238V11.3715L14.4752 10.5238L13.4788 10.8476L14.0946 10L13.4788 9.15242L14.4752 9.47617L15.091 8.6285V9.67625L16.0874 10Z" fill="#FFDA44"/>
<path d="M14.3045 5.69587L13.8288 6.62946L14.5697 7.37028L13.5348 7.2063L13.0593 8.13986L12.8953 7.10505L11.8606 6.94111L12.794 6.46548L12.6301 5.43076L13.371 6.17153L14.3045 5.69587Z" fill="#FFDA44"/>
</svg>
